HIERARCHY
ROOT SpineBase
{
  OFFSET 0.000000 0.000000 0.000000
  CHANNELS 6 Xposition Yposition Zposition Zrotation Xrotation Yrotation
  JOINT SpineMid
  {
    OFFSET 0.000000 31.988909 0.000000
    CHANNELS 3 Zrotation Xrotation Yrotation
    JOINT SpineShoulder
    {
      OFFSET 0.168640 23.533067 -0.598804
      CHANNELS 3 Zrotation Xrotation Yrotation
      JOINT Neck
      {
        OFFSET 0.078812 7.772393 -0.533855
        CHANNELS 3 Zrotation Xrotation Yrotation
        JOINT Head
        {
          OFFSET -3.154862 9.773710 5.764889
          CHANNELS 3 Zrotation Xrotation Yrotation
          End Site
          {
            OFFSET 0 0 0
          }
        }
      }
      JOINT ShoulderLeft
      {
        OFFSET -4.440477 -4.070430 -6.949906
        CHANNELS 3 Zrotation Xrotation Yrotation
        JOINT ElbowLeft
        {
          OFFSET 12.903793 -22.253895 -4.218297
          CHANNELS 3 Zrotation Xrotation Yrotation
          JOINT WristLeft
          {
            OFFSET 6.645725 -24.633570 1.648021
            CHANNELS 3 Zrotation Xrotation Yrotation
            JOINT HandLeft
            {
              OFFSET -0.055112 -7.592291 1.466735
              CHANNELS 3 Zrotation Xrotation Yrotation
              JOINT HandTipLeft
              {
                OFFSET 1.868316 -5.672937 -0.153635
                CHANNELS 3 Zrotation Xrotation Yrotation
                End Site
                {
                  OFFSET 0 0 0
                }
              }
              JOINT ThumbLeft
              {
                OFFSET 2.959059 0.331691 -1.814401
                CHANNELS 3 Zrotation Xrotation Yrotation
                End Site
                {
                  OFFSET 0 0 0
                }
              }
            }
          }
        }
      }
      JOINT ShoulderRight
      {
        OFFSET 7.394223 -5.804064 -10.812985
        CHANNELS 3 Zrotation Xrotation Yrotation
        JOINT ElbowRight
        {
          OFFSET 5.224022 -25.125396 -1.576505
          CHANNELS 3 Zrotation Xrotation Yrotation
          JOINT WristRight
          {
            OFFSET 3.748221 -18.563872 3.324073
            CHANNELS 3 Zrotation Xrotation Yrotation
            JOINT HandRight
            {
              OFFSET 0.122010 -0.979929 -0.368844
              CHANNELS 3 Zrotation Xrotation Yrotation
              JOINT HandTipRight
              {
                OFFSET 4.268561 -6.333419 0.262992
                CHANNELS 3 Zrotation Xrotation Yrotation
                End Site
                {
                  OFFSET 0 0 0
                }
              }
              JOINT ThumbRight
              {
                OFFSET -2.762660 -0.035317 -2.699154
                CHANNELS 3 Zrotation Xrotation Yrotation
                End Site
                {
                  OFFSET 0 0 0
                }
              }
            }
          }
        }
      }
    }
  }
  JOINT HipLeft
  {
    OFFSET -4.578791 0.326688 -1.347311
    CHANNELS 3 Zrotation Xrotation Yrotation
    JOINT KneeLeft
    {
      OFFSET 2.337810 -32.686774 0.831020
      CHANNELS 3 Zrotation Xrotation Yrotation
      JOINT AnkleLeft
      {
        OFFSET 9.074965 -32.151327 -12.755761
        CHANNELS 3 Zrotation Xrotation Yrotation
        JOINT FootLeft
        {
          OFFSET -1.458138 -2.989786 -18.307587
          CHANNELS 3 Zrotation Xrotation Yrotation
          End Site
          {
            OFFSET 0 0 0
          }
        }
      }
    }
  }
  JOINT HipRight
  {
    OFFSET 5.482226 0.902160 -5.198851
    CHANNELS 3 Zrotation Xrotation Yrotation
    JOINT KneeRight
    {
      OFFSET -0.419804 -30.531324 -1.476419
      CHANNELS 3 Zrotation Xrotation Yrotation
      JOINT AnkleRight
      {
        OFFSET -11.938724 -34.414015 10.039635
        CHANNELS 3 Zrotation Xrotation Yrotation
        JOINT FootRight
        {
          OFFSET 4.116793 -6.554026 -2.867826
          CHANNELS 3 Zrotation Xrotation Yrotation
          End Site
          {
            OFFSET 0 0 0
          }
        }
      }
    }
  }
}
MOTION
Frames: 12
Frame Time: 0.033333
-38.942222 70.901050 326.455876 -0.000000 0.000000 20.947755 0.000000 0.000000 -20.947755 -0.000000 0.000000 0.000000 -0.000000 0.000000 0.000000 0.000000 0.000000 0.000000 -0.000000 0.000000 0.000000 -0.000000 0.000000 0.000000 -0.000000 0.000000 0.000000 -0.000000 0.000000 0.000000 0.000000 0.000000 0.000000 0.000000 0.000000 0.000000 -0.000000 0.000000 0.000000 -0.000000 0.000000 0.000000 -0.000000 0.000000 0.000000 -0.000000 0.000000 0.000000 0.000000 0.000000 0.000000 0.000000 0.000000 0.000000 0.000000 0.000000 -20.947755 -0.000000 0.000000 0.000000 -0.000000 0.000000 0.000000 0.000000 0.000000 0.000000 0.000000 0.000000 -20.947755 -0.000000 0.000000 0.000000 -0.000000 0.000000 0.000000 0.000000 0.000000 0.000000
-38.856873 70.924133 326.530513 0.180525 -0.041376 20.517262 -0.154572 0.102023 -20.517059 -0.000000 0.000000 0.000000 -0.000000 0.000000 0.000000 0.000000 0.000000 0.000000 6.106083 2.023076 -0.090158 -4.683810 -1.995612 0.026658 -0.331235 -1.777447 0.137826 -0.784270 0.202609 -0.730624 0.000000 0.000000 0.000000 0.000000 0.000000 0.000000 0.435924 -1.115055 -0.254911 -1.347639 2.023765 0.311574 12.085240 3.147685 -3.853110 -10.920553 -4.742940 3.164680 0.000000 0.000000 0.000000 0.000000 0.000000 0.000000 -1.296211 -0.311419 -20.598992 2.346040 1.947343 -0.196845 -2.000767 -6.368498 8.742989 0.000000 0.000000 0.000000 -0.154572 0.102023 -20.517059 -0.000000 0.000000 0.000000 -1.203956 -3.120073 -1.493839 0.000000 0.000000 0.000000
-38.783892 70.968301 326.618666 0.334678 -0.091718 20.109619 -0.282742 0.201193 -20.108855 0.948011 -0.442461 0.073250 -0.947473 0.443612 -0.065922 0.000000 0.000000 0.000000 9.385189 3.873577 -0.403059 -7.684202 -3.429538 -0.024246 -0.610852 -2.859063 0.280748 -1.397234 0.303294 -1.233164 0.000000 0.000000 0.000000 0.000000 0.000000 0.000000 -0.153110 -1.601365 -0.532779 -2.331875 3.714444 0.638620 26.359811 -3.330325 -8.443779 -26.091816 -2.853269 8.609554 0.000000 0.000000 0.000000 0.000000 0.000000 0.000000 -2.456738 -0.571863 -20.266548 4.415600 3.613553 -0.430639 -1.923977 -17.758302 26.219573 0.000000 0.000000 0.000000 -1.165105 -0.334219 -20.067616 1.488001 1.598226 -0.094242 -3.379944 -6.001235 -2.368749 0.000000 0.000000 0.000000
-38.723277 71.033554 326.720336 0.462737 -0.151126 19.724109 0.400154 -0.474363 -19.692545 0.266574 -0.153444 0.065063 -1.265187 0.617950 -0.086370 0.000000 0.000000 0.000000 11.654399 4.951264 -0.610780 -9.246568 -4.390549 -0.081176 -0.915491 -3.114346 0.387794 -1.738611 -0.048382 -1.582089 0.000000 0.000000 0.000000 0.000000 0.000000 0.000000 -0.193545 -2.146657 -0.713892 -2.938716 5.056139 0.942374 30.572269 -21.941903 -7.527489 -33.915966 11.950097 17.502527 0.000000 0.000000 0.000000 0.000000 0.000000 0.000000 -3.479920 -0.776324 -19.947634 6.194097 4.986338 -0.670082 7.148422 -33.180751 58.668346 0.000000 0.000000 0.000000 -1.470062 -0.368656 -19.670947 1.970265 2.122863 -0.142139 -5.130795 -7.414718 -2.591145 0.000000 0.000000 0.000000
-38.675031 71.119893 326.835522 0.564884 -0.219733 19.360051 0.479312 -0.547260 -19.321500 0.284178 -0.181865 0.075801 -1.481406 0.761633 -0.099666 0.000000 0.000000 0.000000 12.557949 5.566110 -0.701000 -9.543252 -4.946694 -0.117250 -1.301059 -2.488979 0.429591 -1.730112 -1.014446 -1.807482 0.000000 0.000000 0.000000 0.000000 0.000000 0.000000 -0.218871 -2.493912 -0.836390 -3.155077 6.037870 1.193757 22.010212 -37.613928 -5.366104 -30.294879 28.694963 21.301187 0.000000 0.000000 0.000000 0.000000 0.000000 0.000000 -4.364911 -0.920638 -19.639713 7.669484 6.059237 -0.888077 22.591296 -40.061893 91.158928 0.000000 0.000000 0.000000 -1.588211 -0.305822 -19.302019 2.274112 2.460730 -0.182738 -6.901649 -7.785250 -2.098042 0.000000 0.000000 0.000000
-38.639151 71.227317 326.964224 0.641204 -0.297710 19.016789 0.530499 -0.579250 -18.973439 0.267083 -0.199610 0.081129 -1.034569 0.296430 -0.631723 0.000000 0.000000 0.000000 12.156284 5.754171 -0.635163 -8.638542 -5.130021 -0.131257 -1.790627 -1.017361 0.398395 -1.311484 -2.611021 -1.907518 0.000000 0.000000 0.000000 0.000000 0.000000 0.000000 -0.232776 -2.630395 -0.899654 -2.970752 6.652807 1.375091 10.666555 -43.842295 -5.893637 -21.864106 37.624335 18.593651 0.000000 0.000000 0.000000 0.000000 0.000000 0.000000 -5.111573 -1.001411 -19.340579 8.832955 6.830302 -1.062729 29.767395 -40.903448 104.518538 0.000000 0.000000 0.000000 -1.521401 -0.141832 -18.960778 2.399230 2.612140 -0.212817 -8.722686 -7.095475 -0.804933 0.000000 0.000000 0.000000
-38.594837 71.392169 327.120632 0.705063 -0.370826 18.693195 0.513600 -0.532584 -18.648807 0.165231 -0.163764 0.075155 -0.271758 -0.258370 -1.218272 0.000000 0.000000 0.000000 12.462542 5.983440 -0.589106 -8.123001 -5.337559 -0.110505 -2.472130 0.017871 0.323116 0.066302 -3.386293 -1.813249 0.000000 0.000000 0.000000 0.000000 0.000000 0.000000 -0.339058 -2.600763 -0.881825 -1.806659 6.721186 1.457254 0.023412 -46.143065 -7.360560 -12.585301 42.157900 13.517603 0.000000 0.000000 0.000000 0.000000 0.000000 0.000000 -4.921351 -0.850222 -18.989779 8.302392 6.545389 -0.922641 31.543668 -41.604414 104.575699 0.000000 0.000000 0.000000 -0.549049 0.577212 -18.688148 1.799015 1.870538 -0.155057 -10.682844 -2.306226 3.578737 0.000000 0.000000 0.000000
-38.592799 71.589619 327.280985 0.665196 -0.458899 18.512035 0.418455 -0.399295 -18.473287 -0.028678 -0.112559 0.053962 1.220714 -0.984421 -2.067682 0.000000 0.000000 0.000000 9.444994 5.326611 -0.042076 -4.607420 -4.969004 -0.252738 -3.885507 3.656949 0.061506 2.629263 -6.303399 -1.194297 0.000000 0.000000 0.000000 0.000000 0.000000 0.000000 -0.171920 -2.191188 -0.755672 -0.518509 6.053416 1.390896 -5.502690 -42.952916 -7.270284 -7.605870 40.989173 10.369415 0.000000 0.000000 0.000000 0.000000 0.000000 0.000000 -5.718530 -0.837982 -18.849993 9.524086 7.245314 -1.042508 9.475774 -37.955156 61.311798 0.000000 0.000000 0.000000 -0.485108 0.646331 -18.506635 2.034647 2.138043 -0.188329 -13.823161 0.508767 7.179586 0.000000 0.000000 0.000000
-38.604780 71.763360 327.457406 0.671311 -0.596707 18.200393 0.447486 -0.336383 -18.161157 -0.076000 -0.141212 0.052348 1.537152 -1.366461 -2.385639 0.000000 0.000000 0.000000 2.947896 3.683224 0.577290 1.543280 -3.756650 -0.481332 -3.548289 8.084093 0.121031 3.076926 -10.545970 -0.942936 0.000000 0.000000 0.000000 0.000000 0.000000 0.000000 -0.192098 -1.822103 -0.698683 0.460869 5.887191 1.441811 -8.209744 -42.119228 -7.420708 -7.573363 41.108499 10.854696 0.000000 0.000000 0.000000 0.000000 0.000000 0.000000 -6.095332 -0.671402 -18.538951 10.210989 7.695756 -1.085664 -1.885496 -26.825292 31.148135 0.000000 0.000000 0.000000 -0.451397 0.776502 -18.193838 1.942099 2.319323 -0.280717 -15.885775 1.835746 9.466398 0.000000 0.000000 0.000000
-38.624500 71.885599 327.625498 0.683247 -0.749640 17.955406 0.475843 -0.297901 -17.914857 -0.096810 -0.188459 0.053561 1.682419 -1.586341 -2.599470 0.000000 0.000000 0.000000 -6.314143 1.059348 1.016689 10.188791 -1.697682 -0.996071 -2.625484 11.907377 0.258764 5.230320 -11.776116 0.197383 0.000000 0.000000 0.000000 0.000000 0.000000 0.000000 -0.153421 -1.478420 -0.666799 1.227725 6.007016 1.549789 -10.312654 -42.368657 -7.843670 -11.015232 42.351908 14.332125 0.000000 0.000000 0.000000 0.000000 0.000000 0.000000 -6.756922 -0.557334 -18.310739 11.314196 8.085329 -1.275921 -4.233136 -21.957827 21.344896 0.000000 0.000000 0.000000 0.559178 1.529113 -18.016506 0.689459 1.214650 -0.272197 -16.299347 2.371411 10.342533 0.000000 0.000000 0.000000
-38.632248 71.942256 327.770163 0.746481 -0.876316 17.586817 0.509594 -0.286793 -17.542741 -0.082527 -0.235063 0.059917 1.115939 -1.901984 -2.493721 0.000000 0.000000 0.000000 -17.906195 -2.584070 0.748642 20.808354 1.365627 -1.981485 -1.785952 15.253536 0.351518 6.763480 -14.094094 0.997305 0.000000 0.000000 0.000000 0.000000 0.000000 0.000000 -0.144018 -1.192510 -0.656777 1.509169 6.007208 1.600493 -11.007449 -41.778403 -7.820998 -14.605463 41.015463 16.285394 0.000000 0.000000 0.000000 0.000000 0.000000 0.000000 -7.790576 -0.584233 -17.984329 12.894300 8.605713 -1.610444 -6.288745 -15.583506 15.399721 0.000000 0.000000 0.000000 0.969662 2.012646 -17.684660 -0.166707 0.551718 -0.332903 -15.204820 1.783979 9.606164 0.000000 0.000000 0.000000
-38.640895 71.974055 327.913261 0.777130 -1.008160 17.277772 0.498855 -0.255794 -17.232292 -0.123986 -0.260293 0.058778 1.477159 -2.295407 -2.857730 0.000000 0.000000 0.000000 -28.155045 -5.617830 0.048578 30.486145 3.843241 -3.377980 0.485380 16.422275 0.497054 4.840763 -15.934607 0.303556 0.000000 0.000000 0.000000 0.000000 0.000000 0.000000 0.057920 -1.049507 -0.666589 1.466867 5.907701 1.610201 -11.070311 -41.173545 -7.657380 -17.154997 38.207146 16.012696 0.000000 0.000000 0.000000 0.000000 0.000000 0.000000 -7.563297 -0.343478 -17.632441 12.457484 7.861500 -1.578833 -5.256790 -19.190537 22.412235 0.000000 0.000000 0.000000 1.270132 2.428147 -17.404925 -0.991367 -0.060948 -0.416769 -12.558883 0.180769 7.329633 0.000000 0.000000 0.000000
